<svg width="8" height="26" viewBox="0 0 8 26" fill="none" xmlns="http://www.w3.org/2000/svg">
<path d="M4.5 1C4.5 0.723858 4.27614 0.5 4 0.5C3.72386 0.5 3.5 0.723858 3.5 1L4.5 1ZM3.64645 25.3536C3.84171 25.5488 4.15829 25.5488 4.35355 25.3536L7.53553 22.1716C7.7308 21.9763 7.7308 21.6597 7.53553 21.4645C7.34027 21.2692 7.02369 21.2692 6.82843 21.4645L4 24.2929L1.17157 21.4645C0.976312 21.2692 0.659729 21.2692 0.464467 21.4645C0.269205 21.6597 0.269205 21.9763 0.464467 22.1716L3.64645 25.3536ZM3.5 2.5C3.5 2.77614 3.72386 3 4 3C4.27614 3 4.5 2.77614 4.5 2.5L3.5 2.5ZM4.5 5.5C4.5 5.22386 4.27614 5 4 5C3.72386 5 3.5 5.22386 3.5 5.5L4.5 5.5ZM3.5 8.5C3.5 8.77614 3.72386 9 4 9C4.27614 9 4.5 8.77614 4.5 8.5L3.5 8.5ZM4.5 11.5C4.5 11.2239 4.27614 11 4 11C3.72386 11 3.5 11.2239 3.5 11.5L4.5 11.5ZM3.5 14.5C3.5 14.7761 3.72386 15 4 15C4.27614 15 4.5 14.7761 4.5 14.5L3.5 14.5ZM4.5 17.5C4.5 17.2239 4.27614 17 4 17C3.72386 17 3.5 17.2239 3.5 17.5L4.5 17.5ZM3.5 20.5C3.5 20.7761 3.72386 21 4 21C4.27614 21 4.5 20.7761 4.5 20.5L3.5 20.5ZM4.5 23.5C4.5 23.2239 4.27614 23 4 23C3.72386 23 3.5 23.2239 3.5 23.5L4.5 23.5ZM3.5 1L3.5 2.5L4.5 2.5L4.5 1L3.5 1ZM3.5 5.5L3.5 8.5L4.5 8.5L4.5 5.5L3.5 5.5ZM3.5 11.5L3.5 14.5L4.5 14.5L4.5 11.5L3.5 11.5ZM3.5 17.5L3.5 20.5L4.5 20.5L4.5 17.5L3.5 17.5ZM3.5 23.5L3.5 25L4.5 25L4.5 23.5L3.5 23.5Z" fill="#B3B3B3"/>
</svg>
