<svg width="282" height="12" viewBox="0 0 282 12" fill="none" xmlns="http://www.w3.org/2000/svg">
<path d="M1.00537 3.68073C0.591159 3.67905 0.25401 4.01347 0.252326 4.42768C0.250641 4.84189 0.585059 5.17903 0.99927 5.18072L1.00537 3.68073ZM281.528 6.1018C281.822 5.8101 281.824 5.33523 281.532 5.04115L276.779 0.24881C276.487 -0.0452722 276.012 -0.0472033 275.718 0.244497C275.424 0.536197 275.422 1.01107 275.714 1.30515L279.939 5.56501L275.68 9.79036C275.385 10.0821 275.383 10.5569 275.675 10.851C275.967 11.1451 276.442 11.147 276.736 10.8553L281.528 6.1018ZM2.99925 5.18885C3.41346 5.19054 3.75061 4.85612 3.7523 4.44191C3.75398 4.0277 3.41956 3.69055 3.00535 3.68886L2.99925 5.18885ZM7.00532 3.70513C6.59111 3.70345 6.25396 4.03786 6.25228 4.45207C6.25059 4.86628 6.58501 5.20343 6.99922 5.20512L7.00532 3.70513ZM10.9992 5.22138C11.4134 5.22307 11.7505 4.88865 11.7522 4.47444C11.7539 4.06023 11.4195 3.72308 11.0053 3.7214L10.9992 5.22138ZM15.0053 3.73766C14.591 3.73598 14.2539 4.07039 14.2522 4.4846C14.2505 4.89882 14.5849 5.23596 14.9992 5.23765L15.0053 3.73766ZM18.9991 5.25391C19.4133 5.2556 19.7505 4.92118 19.7522 4.50697C19.7539 4.09276 19.4194 3.75561 19.0052 3.75393L18.9991 5.25391ZM23.0052 3.77019C22.591 3.76851 22.2538 4.10293 22.2521 4.51714C22.2505 4.93135 22.5849 5.2685 22.9991 5.27018L23.0052 3.77019ZM26.9991 5.28645C27.4133 5.28813 27.7504 4.95371 27.7521 4.5395C27.7538 4.12529 27.4194 3.78814 27.0052 3.78646L26.9991 5.28645ZM31.0051 3.80272C30.5909 3.80104 30.2538 4.13546 30.2521 4.54967C30.2504 4.96388 30.5848 5.30103 30.999 5.30271L31.0051 3.80272ZM34.999 5.31898C35.4132 5.32066 35.7503 4.98624 35.752 4.57203C35.7537 4.15782 35.4193 3.82067 35.0051 3.81899L34.999 5.31898ZM39.0051 3.83525C38.5908 3.83357 38.2537 4.16799 38.252 4.5822C38.2503 4.99641 38.5847 5.33356 38.999 5.33524L39.0051 3.83525ZM42.9989 5.35151C43.4131 5.35319 43.7503 5.01877 43.752 4.60456C43.7537 4.19035 43.4192 3.8532 43.005 3.85152L42.9989 5.35151ZM47.005 3.86779C46.5908 3.8661 46.2536 4.20052 46.2519 4.61473C46.2503 5.02894 46.5847 5.36609 46.9989 5.36777L47.005 3.86779ZM50.9989 5.38404C51.4131 5.38572 51.7502 5.05131 51.7519 4.6371C51.7536 4.22289 51.4192 3.88574 51.005 3.88405L50.9989 5.38404ZM55.0049 3.90032C54.5907 3.89863 54.2536 4.23305 54.2519 4.64726C54.2502 5.06147 54.5846 5.39862 54.9988 5.4003L55.0049 3.90032ZM58.9988 5.41657C59.413 5.41825 59.7502 5.08384 59.7518 4.66963C59.7535 4.25542 59.4191 3.91827 59.0049 3.91658L58.9988 5.41657ZM63.0049 3.93285C62.5906 3.93116 62.2535 4.26558 62.2518 4.67979C62.2501 5.094 62.5845 5.43115 62.9988 5.43284L63.0049 3.93285ZM66.9987 5.4491C67.4129 5.45079 67.7501 5.11637 67.7518 4.70216C67.7535 4.28795 67.419 3.9508 67.0048 3.94911L66.9987 5.4491ZM71.0048 3.96538C70.5906 3.9637 70.2534 4.29811 70.2517 4.71232C70.2501 5.12653 70.5845 5.46368 70.9987 5.46537L71.0048 3.96538ZM74.9987 5.48163C75.4129 5.48332 75.75 5.1489 75.7517 4.73469C75.7534 4.32048 75.419 3.98333 75.0048 3.98165L74.9987 5.48163ZM79.0047 3.99791C78.5905 3.99623 78.2534 4.33064 78.2517 4.74486C78.25 5.15907 78.5844 5.49621 78.9986 5.4979L79.0047 3.99791ZM82.9986 5.51416C83.4128 5.51585 83.7499 5.18143 83.7516 4.76722C83.7533 4.35301 83.4189 4.01586 83.0047 4.01418L82.9986 5.51416ZM87.0047 4.03044C86.5904 4.02876 86.2533 4.36318 86.2516 4.77739C86.2499 5.1916 86.5843 5.52875 86.9986 5.53043L87.0047 4.03044ZM90.9985 5.5467C91.4127 5.54838 91.7499 5.21396 91.7516 4.79975C91.7533 4.38554 91.4188 4.04839 91.0046 4.04671L90.9985 5.5467ZM95.0046 4.06297C94.5904 4.06129 94.2532 4.39571 94.2515 4.80992C94.2499 5.22413 94.5843 5.56128 94.9985 5.56296L95.0046 4.06297ZM98.9985 5.57923C99.4127 5.58091 99.7498 5.24649 99.7515 4.83228C99.7532 4.41807 99.4188 4.08092 99.0046 4.07924L98.9985 5.57923ZM103.005 4.0955C102.59 4.09382 102.253 4.42824 102.251 4.84245C102.25 5.25666 102.584 5.59381 102.998 5.59549L103.005 4.0955ZM106.998 5.61176C107.413 5.61344 107.75 5.27902 107.751 4.86481C107.753 4.4506 107.419 4.11345 107.004 4.11177L106.998 5.61176ZM111.004 4.12804C110.59 4.12635 110.253 4.46077 110.251 4.87498C110.25 5.28919 110.584 5.62634 110.998 5.62802L111.004 4.12804ZM114.998 5.64429C115.413 5.64597 115.75 5.31156 115.751 4.89735C115.753 4.48314 115.419 4.14599 115.004 4.1443L114.998 5.64429ZM119.004 4.16057C118.59 4.15888 118.253 4.4933 118.251 4.90751C118.25 5.32172 118.584 5.65887 118.998 5.66055L119.004 4.16057ZM122.998 5.67682C123.412 5.6785 123.75 5.34409 123.751 4.92988C123.753 4.51567 123.419 4.17852 123.004 4.17683L122.998 5.67682ZM127.004 4.1931C126.59 4.19141 126.253 4.52583 126.251 4.94004C126.25 5.35425 126.584 5.6914 126.998 5.69309L127.004 4.1931ZM130.998 5.70935C131.412 5.71104 131.75 5.37662 131.751 4.96241C131.753 4.5482 131.419 4.21105 131.004 4.20936L130.998 5.70935ZM135.004 4.22563C134.59 4.22395 134.253 4.55836 134.251 4.97257C134.25 5.38678 134.584 5.72393 134.998 5.72562L135.004 4.22563ZM138.998 5.74188C139.412 5.74357 139.749 5.40915 139.751 4.99494C139.753 4.58073 139.418 4.24358 139.004 4.2419L138.998 5.74188ZM143.004 4.25816C142.59 4.25648 142.253 4.59089 142.251 5.00511C142.249 5.41932 142.584 5.75646 142.998 5.75815L143.004 4.25816ZM146.998 5.77441C147.412 5.7761 147.749 5.44168 147.751 5.02747C147.753 4.61326 147.418 4.27611 147.004 4.27443L146.998 5.77441ZM151.004 4.29069C150.59 4.28901 150.253 4.62343 150.251 5.03764C150.249 5.45185 150.584 5.789 150.998 5.79068L151.004 4.29069ZM154.998 5.80695C155.412 5.80863 155.749 5.47421 155.751 5.06C155.753 4.64579 155.418 4.30864 155.004 4.30696L154.998 5.80695ZM159.004 4.32322C158.59 4.32154 158.253 4.65596 158.251 5.07017C158.249 5.48438 158.584 5.82153 158.998 5.82321L159.004 4.32322ZM162.998 5.83948C163.412 5.84116 163.749 5.50674 163.751 5.09253C163.753 4.67832 163.418 4.34117 163.004 4.33949L162.998 5.83948ZM167.004 4.35575C166.59 4.35407 166.253 4.68849 166.251 5.1027C166.249 5.51691 166.584 5.85406 166.998 5.85574L167.004 4.35575ZM170.998 5.87201C171.412 5.87369 171.749 5.53927 171.751 5.12506C171.753 4.71085 171.418 4.3737 171.004 4.37202L170.998 5.87201ZM175.004 4.38829C174.59 4.3866 174.253 4.72102 174.251 5.13523C174.249 5.54944 174.584 5.88659 174.998 5.88827L175.004 4.38829ZM178.998 5.90454C179.412 5.90622 179.749 5.57181 179.751 5.1576C179.753 4.74339 179.418 4.40624 179.004 4.40455L178.998 5.90454ZM183.004 4.42082C182.59 4.41913 182.253 4.75355 182.251 5.16776C182.249 5.58197 182.584 5.91912 182.998 5.9208L183.004 4.42082ZM186.998 5.93707C187.412 5.93875 187.749 5.60434 187.751 5.19013C187.752 4.77592 187.418 4.43877 187.004 4.43708L186.998 5.93707ZM191.004 4.45335C190.59 4.45166 190.252 4.78608 190.251 5.20029C190.249 5.6145 190.583 5.95165 190.998 5.95334L191.004 4.45335ZM194.998 5.9696C195.412 5.97129 195.749 5.63687 195.751 5.22266C195.752 4.80845 195.418 4.4713 195.004 4.46961L194.998 5.9696ZM199.004 4.48588C198.59 4.4842 198.252 4.81861 198.251 5.23282C198.249 5.64703 198.583 5.98418 198.998 5.98587L199.004 4.48588ZM202.998 6.00213C203.412 6.00382 203.749 5.6694 203.751 5.25519C203.752 4.84098 203.418 4.50383 203.004 4.50215L202.998 6.00213ZM207.004 4.51841C206.589 4.51673 206.252 4.85114 206.251 5.26536C206.249 5.67957 206.583 6.01671 206.998 6.0184L207.004 4.51841ZM210.998 6.03466C211.412 6.03635 211.749 5.70193 211.751 5.28772C211.752 4.87351 211.418 4.53636 211.004 4.53468L210.998 6.03466ZM215.004 4.55094C214.589 4.54926 214.252 4.88368 214.251 5.29789C214.249 5.7121 214.583 6.04925 214.998 6.05093L215.004 4.55094ZM218.997 6.0672C219.412 6.06888 219.749 5.73446 219.751 5.32025C219.752 4.90604 219.418 4.56889 219.004 4.56721L218.997 6.0672ZM223.004 4.58347C222.589 4.58179 222.252 4.91621 222.251 5.33042C222.249 5.74463 222.583 6.08178 222.997 6.08346L223.004 4.58347ZM226.997 6.09973C227.412 6.10141 227.749 5.76699 227.75 5.35278C227.752 4.93857 227.418 4.60142 227.003 4.59974L226.997 6.09973ZM231.003 4.616C230.589 4.61432 230.252 4.94874 230.25 5.36295C230.249 5.77716 230.583 6.11431 230.997 6.11599L231.003 4.616ZM234.997 6.13226C235.412 6.13394 235.749 5.79952 235.75 5.38531C235.752 4.9711 235.418 4.63395 235.003 4.63227L234.997 6.13226ZM239.003 4.64854C238.589 4.64685 238.252 4.98127 238.25 5.39548C238.249 5.80969 238.583 6.14684 238.997 6.14852L239.003 4.64854ZM242.997 6.16479C243.411 6.16647 243.749 5.83206 243.75 5.41785C243.752 5.00364 243.418 4.66649 243.003 4.6648L242.997 6.16479ZM247.003 4.68107C246.589 4.67938 246.252 5.0138 246.25 5.42801C246.249 5.84222 246.583 6.17937 246.997 6.18106L247.003 4.68107ZM250.997 6.19732C251.411 6.199 251.749 5.86459 251.75 5.45038C251.752 5.03617 251.418 4.69902 251.003 4.69733L250.997 6.19732ZM255.003 4.7136C254.589 4.71191 254.252 5.04633 254.25 5.46054C254.249 5.87475 254.583 6.2119 254.997 6.21359L255.003 4.7136ZM258.997 6.22985C259.411 6.23154 259.748 5.89712 259.75 5.48291C259.752 5.0687 259.417 4.73155 259.003 4.72986L258.997 6.22985ZM263.003 4.74613C262.589 4.74445 262.252 5.07886 262.25 5.49307C262.248 5.90728 262.583 6.24443 262.997 6.24612L263.003 4.74613ZM266.997 6.26238C267.411 6.26407 267.748 5.92965 267.75 5.51544C267.752 5.10123 267.417 4.76408 267.003 4.7624L266.997 6.26238ZM271.003 4.77866C270.589 4.77698 270.252 5.11139 270.25 5.52561C270.248 5.93982 270.583 6.27696 270.997 6.27865L271.003 4.77866ZM274.997 6.29491C275.411 6.2966 275.748 5.96218 275.75 5.54797C275.752 5.13376 275.417 4.79661 275.003 4.79493L274.997 6.29491ZM279.003 4.81119C278.589 4.80951 278.252 5.14393 278.25 5.55814C278.248 5.97235 278.583 6.3095 278.997 6.31118L279.003 4.81119ZM0.99927 5.18072L2.99925 5.18885L3.00535 3.68886L1.00537 3.68073L0.99927 5.18072ZM6.99922 5.20512L10.9992 5.22138L11.0053 3.7214L7.00532 3.70513L6.99922 5.20512ZM14.9992 5.23765L18.9991 5.25391L19.0052 3.75393L15.0053 3.73766L14.9992 5.23765ZM22.9991 5.27018L26.9991 5.28645L27.0052 3.78646L23.0052 3.77019L22.9991 5.27018ZM30.999 5.30271L34.999 5.31898L35.0051 3.81899L31.0051 3.80272L30.999 5.30271ZM38.999 5.33524L42.9989 5.35151L43.005 3.85152L39.0051 3.83525L38.999 5.33524ZM46.9989 5.36777L50.9989 5.38404L51.005 3.88405L47.005 3.86779L46.9989 5.36777ZM54.9988 5.4003L58.9988 5.41657L59.0049 3.91658L55.0049 3.90032L54.9988 5.4003ZM62.9988 5.43284L66.9987 5.4491L67.0048 3.94911L63.0049 3.93285L62.9988 5.43284ZM70.9987 5.46537L74.9987 5.48163L75.0048 3.98165L71.0048 3.96538L70.9987 5.46537ZM78.9986 5.4979L82.9986 5.51416L83.0047 4.01418L79.0047 3.99791L78.9986 5.4979ZM86.9986 5.53043L90.9985 5.5467L91.0046 4.04671L87.0047 4.03044L86.9986 5.53043ZM94.9985 5.56296L98.9985 5.57923L99.0046 4.07924L95.0046 4.06297L94.9985 5.56296ZM102.998 5.59549L106.998 5.61176L107.004 4.11177L103.005 4.0955L102.998 5.59549ZM110.998 5.62802L114.998 5.64429L115.004 4.1443L111.004 4.12804L110.998 5.62802ZM118.998 5.66055L122.998 5.67682L123.004 4.17683L119.004 4.16057L118.998 5.66055ZM126.998 5.69309L130.998 5.70935L131.004 4.20936L127.004 4.1931L126.998 5.69309ZM134.998 5.72562L138.998 5.74188L139.004 4.2419L135.004 4.22563L134.998 5.72562ZM142.998 5.75815L146.998 5.77441L147.004 4.27443L143.004 4.25816L142.998 5.75815ZM150.998 5.79068L154.998 5.80695L155.004 4.30696L151.004 4.29069L150.998 5.79068ZM158.998 5.82321L162.998 5.83948L163.004 4.33949L159.004 4.32322L158.998 5.82321ZM166.998 5.85574L170.998 5.87201L171.004 4.37202L167.004 4.35575L166.998 5.85574ZM174.998 5.88827L178.998 5.90454L179.004 4.40455L175.004 4.38829L174.998 5.88827ZM182.998 5.9208L186.998 5.93707L187.004 4.43708L183.004 4.42082L182.998 5.9208ZM190.998 5.95334L194.998 5.9696L195.004 4.46961L191.004 4.45335L190.998 5.95334ZM198.998 5.98587L202.998 6.00213L203.004 4.50215L199.004 4.48588L198.998 5.98587ZM206.998 6.0184L210.998 6.03466L211.004 4.53468L207.004 4.51841L206.998 6.0184ZM214.998 6.05093L218.997 6.0672L219.004 4.56721L215.004 4.55094L214.998 6.05093ZM222.997 6.08346L226.997 6.09973L227.003 4.59974L223.004 4.58347L222.997 6.08346ZM230.997 6.11599L234.997 6.13226L235.003 4.63227L231.003 4.616L230.997 6.11599ZM238.997 6.14852L242.997 6.16479L243.003 4.6648L239.003 4.64854L238.997 6.14852ZM246.997 6.18106L250.997 6.19732L251.003 4.69733L247.003 4.68107L246.997 6.18106ZM254.997 6.21359L258.997 6.22985L259.003 4.72986L255.003 4.7136L254.997 6.21359ZM262.997 6.24612L266.997 6.26238L267.003 4.7624L263.003 4.74613L262.997 6.24612ZM270.997 6.27865L274.997 6.29491L275.003 4.79493L271.003 4.77866L270.997 6.27865ZM278.997 6.31118L280.997 6.31931L281.003 4.81933L279.003 4.81119L278.997 6.31118Z" fill="#B3B3B3"/>
</svg>
