<svg width="8" height="74" viewBox="0 0 8 74" fill="none" xmlns="http://www.w3.org/2000/svg">
<path d="M4.27282 0.996844C4.27107 0.720707 4.04581 0.498267 3.76967 0.50001C3.49353 0.501753 3.27109 0.727019 3.27284 1.00316L4.27282 0.996844ZM3.87602 73.3543C4.07251 73.5484 4.38908 73.5464 4.58311 73.3499L7.74494 70.1479C7.93896 69.9514 7.93697 69.6348 7.74048 69.4408C7.54398 69.2468 7.22741 69.2488 7.03338 69.4452L4.22287 72.2915L1.37664 69.481C1.18015 69.2869 0.863574 69.2889 0.669548 69.4854C0.475522 69.6819 0.477521 69.9985 0.674012 70.1925L3.87602 73.3543ZM3.28231 2.50313C3.28405 2.77926 3.50932 3.0017 3.78545 2.99996C4.06159 2.99822 4.28403 2.77295 4.28229 2.49681L3.28231 2.50313ZM4.30122 5.49675C4.29948 5.22062 4.07421 4.99818 3.79808 4.99992C3.52194 5.00166 3.2995 5.22693 3.30124 5.50307L4.30122 5.49675ZM3.32018 8.50301C3.32192 8.77914 3.54719 9.00158 3.82333 8.99984C4.09946 8.9981 4.3219 8.77283 4.32016 8.49669L3.32018 8.50301ZM4.3391 11.4966C4.33736 11.2205 4.11209 10.9981 3.83595 10.9998C3.55982 11.0015 3.33738 11.2268 3.33912 11.5029L4.3391 11.4966ZM3.35806 14.5029C3.3598 14.779 3.58507 15.0015 3.8612 14.9997C4.13734 14.998 4.35978 14.7727 4.35804 14.4966L3.35806 14.5029ZM4.37697 17.4965C4.37523 17.2204 4.14996 16.9979 3.87383 16.9997C3.59769 17.0014 3.37525 17.2267 3.37699 17.5028L4.37697 17.4965ZM3.39593 20.5028C3.39767 20.7789 3.62294 21.0013 3.89908 20.9996C4.17521 20.9979 4.39765 20.7726 4.39591 20.4965L3.39593 20.5028ZM4.41485 23.4964C4.41311 23.2203 4.18784 22.9978 3.9117 22.9996C3.63557 23.0013 3.41313 23.2266 3.41487 23.5027L4.41485 23.4964ZM3.43381 26.5026C3.43555 26.7788 3.66082 27.0012 3.93695 26.9995C4.21309 26.9977 4.43553 26.7725 4.43379 26.4963L3.43381 26.5026ZM4.45272 29.4963C4.45098 29.2201 4.22572 28.9977 3.94958 28.9994C3.67344 29.0012 3.451 29.2265 3.45274 29.5026L4.45272 29.4963ZM3.47168 32.5025C3.47343 32.7787 3.69869 33.0011 3.97483 32.9994C4.25097 32.9976 4.47341 32.7724 4.47166 32.4962L3.47168 32.5025ZM4.4906 35.4962C4.48886 35.22 4.26359 34.9976 3.98745 34.9993C3.71132 35.0011 3.48888 35.2263 3.49062 35.5025L4.4906 35.4962ZM3.50956 38.5024C3.5113 38.7785 3.73657 39.001 4.0127 38.9992C4.28884 38.9975 4.51128 38.7722 4.50954 38.4961L3.50956 38.5024ZM4.52847 41.496C4.52673 41.2199 4.30147 40.9975 4.02533 40.9992C3.74919 41.0009 3.52675 41.2262 3.52849 41.5023L4.52847 41.496ZM3.54743 44.5023C3.54918 44.7784 3.77444 45.0009 4.05058 44.9991C4.32672 44.9974 4.54916 44.7721 4.54741 44.496L3.54743 44.5023ZM4.56635 47.4959C4.56461 47.2198 4.33934 46.9973 4.0632 46.9991C3.78707 47.0008 3.56463 47.2261 3.56637 47.5022L4.56635 47.4959ZM3.58531 50.5022C3.58705 50.7783 3.81232 51.0007 4.08845 50.999C4.36459 50.9973 4.58703 50.772 4.58529 50.4959L3.58531 50.5022ZM4.60423 53.4958C4.60248 53.2197 4.37722 52.9972 4.10108 52.999C3.82494 53.0007 3.6025 53.226 3.60425 53.5021L4.60423 53.4958ZM3.62318 56.502C3.62493 56.7782 3.85019 57.0006 4.12633 56.9989C4.40247 56.9971 4.62491 56.7719 4.62316 56.4957L3.62318 56.502ZM4.6421 59.4957C4.64036 59.2195 4.41509 58.9971 4.13895 58.9988C3.86282 59.0006 3.64038 59.2259 3.64212 59.502L4.6421 59.4957ZM3.66106 62.5019C3.6628 62.7781 3.88807 63.0005 4.1642 62.9988C4.44034 62.997 4.66278 62.7718 4.66104 62.4956L3.66106 62.5019ZM4.67998 65.4956C4.67823 65.2194 4.45297 64.997 4.17683 64.9987C3.90069 65.0005 3.67825 65.2257 3.68 65.5019L4.67998 65.4956ZM3.69893 68.5018C3.70068 68.7779 3.92594 69.0004 4.20208 68.9986C4.47822 68.9969 4.70066 68.7716 4.69891 68.4955L3.69893 68.5018ZM4.71785 71.4954C4.71611 71.2193 4.49084 70.9969 4.2147 70.9986C3.93857 71.0003 3.71613 71.2256 3.71787 71.5018L4.71785 71.4954ZM3.27284 1.00316L3.28231 2.50313L4.28229 2.49681L4.27282 0.996844L3.27284 1.00316ZM3.30124 5.50307L3.32018 8.50301L4.32016 8.49669L4.30122 5.49675L3.30124 5.50307ZM3.33912 11.5029L3.35806 14.5029L4.35804 14.4966L4.3391 11.4966L3.33912 11.5029ZM3.37699 17.5028L3.39593 20.5028L4.39591 20.4965L4.37697 17.4965L3.37699 17.5028ZM3.41487 23.5027L3.43381 26.5026L4.43379 26.4963L4.41485 23.4964L3.41487 23.5027ZM3.45274 29.5026L3.47168 32.5025L4.47166 32.4962L4.45272 29.4963L3.45274 29.5026ZM3.49062 35.5025L3.50956 38.5024L4.50954 38.4961L4.4906 35.4962L3.49062 35.5025ZM3.52849 41.5023L3.54743 44.5023L4.54741 44.496L4.52847 41.496L3.52849 41.5023ZM3.56637 47.5022L3.58531 50.5022L4.58529 50.4959L4.56635 47.4959L3.56637 47.5022ZM3.60425 53.5021L3.62318 56.502L4.62316 56.4957L4.60423 53.4958L3.60425 53.5021ZM3.64212 59.502L3.66106 62.5019L4.66104 62.4956L4.6421 59.4957L3.64212 59.502ZM3.68 65.5019L3.69893 68.5018L4.69891 68.4955L4.67998 65.4956L3.68 65.5019ZM3.71787 71.5018L3.72734 73.0017L4.72732 72.9954L4.71785 71.4954L3.71787 71.5018Z" fill="#B3B3B3"/>
</svg>
