<svg width="56" height="56" viewBox="0 0 56 56" fill="none" xmlns="http://www.w3.org/2000/svg">
<path d="M27.9204 0.153809C12.4454 0.153809 0.026001 12.6718 0.026001 28.0482C0.026001 43.5232 12.544 55.9427 27.9204 55.9427C43.3954 55.9427 55.8149 43.4247 55.8149 28.0482C55.9135 12.6718 43.3954 0.153809 27.9204 0.153809Z" fill="#006FBA"/>
<path d="M27.923 1.53369C13.2365 1.53369 1.40848 13.4603 1.40848 28.0482C1.40848 42.7347 13.335 54.5627 27.923 54.5627C42.6094 54.5627 54.4375 42.6361 54.4375 28.0482C54.4375 13.4603 42.6094 1.53369 27.923 1.53369Z" fill="white"/>
<path d="M27.9215 43.9176C19.2476 43.9176 12.1508 36.8208 12.1508 28.1469C12.1508 19.473 19.2476 12.3762 27.9215 12.3762C36.5954 12.3762 43.6922 19.473 43.6922 28.1469C43.6922 36.8208 36.694 43.9176 27.9215 43.9176ZM27.9215 2.81519C13.925 2.81519 2.58987 14.1504 2.58987 28.1469C2.58987 42.1434 13.925 53.4786 27.9215 53.4786C41.918 53.4786 53.2532 42.1434 53.2532 28.1469C53.2532 14.1504 41.918 2.81519 27.9215 2.81519Z" fill="#E11837"/>
<path d="M41.8193 23.8098C41.1293 21.6414 40.0451 19.7686 38.6651 18.2901V24.7955L42.4107 30.2167C42.6078 28.1468 42.5093 25.9783 41.8193 23.8098ZM38.6651 32.2866V24.7955L34.4268 18.5858V15.0374C33.4411 14.5446 32.3569 14.1503 31.1741 13.8546L34.4268 18.5858V26.0769L38.6651 32.2866V38.0035C39.4537 37.1164 40.1436 36.2293 40.735 35.2436L38.6651 32.2866ZM23.6829 14.2488C21.5145 14.9388 19.6417 16.0231 18.0646 17.5016L21.6131 22.627V30.1181L25.8514 36.3278V42.5376C27.9213 42.8333 30.1884 42.7347 32.3568 42.0447C34.5253 41.3547 36.3981 40.2705 37.9752 38.792L34.4268 33.6665V26.1754L30.1884 19.9657V13.756C28.0199 13.3617 25.8514 13.5589 23.6829 14.2488ZM30.0898 27.4568L25.8514 21.2471V13.756L30.0898 19.9657V27.4568L34.3282 33.6665V41.1576L30.0898 34.9479V27.4568ZM25.8514 28.7382L30.0898 34.9479V42.439L25.8514 36.2293V28.7382L21.6131 22.5285V15.0374L25.8514 21.2471V28.7382ZM21.5145 37.6092V30.1181L17.2761 23.9084V18.1915C16.4876 19.0786 15.7976 19.9657 15.2062 20.9514L17.1776 23.9084V31.3995L21.5145 37.6092V41.1576C22.5001 41.6505 23.5844 42.0447 24.7672 42.3404L21.5145 37.6092ZM14.0234 32.3852C14.7134 34.5536 15.7976 36.4264 17.1776 37.9049V31.3995L13.432 25.9783C13.2349 28.0482 13.432 30.2167 14.0234 32.3852Z" fill="#006FBA"/>
<path d="M11.0667 33.272L11.7566 34.8491L10.5738 37.0176C10.3767 37.3133 10.2781 37.609 10.2781 37.609C10.2781 37.609 10.5738 37.609 10.9681 37.7076L13.4323 37.9047L14.3193 39.3832L8.99677 42.5373L8.10964 41.1574L10.3767 39.876C10.8695 39.5803 11.2638 39.3832 11.2638 39.3832C11.2638 39.3832 10.9681 39.3832 10.3767 39.2846L8.10964 38.9889L9.09531 36.919C9.29245 36.4262 9.4896 36.1305 9.4896 36.1305C9.4896 36.1305 9.09531 36.3276 8.60248 36.6233L6.13831 37.609L5.44832 36.1305L11.0667 33.272Z" fill="white"/>
<path d="M17.6708 42.1429L16.0937 43.2271L16.7837 41.4529L17.6708 42.1429ZM15.108 40.0729L16.3894 41.1572L13.9253 44.1142C13.531 44.607 13.5309 45.0999 14.1223 45.5927C14.7137 46.0855 15.2066 45.987 15.6009 45.4941L17.8679 42.34L19.2478 43.3256L16.8823 46.4798C15.798 47.9583 14.4181 47.6626 13.2353 46.6769C12.0525 45.6913 11.4611 44.4099 12.5453 43.0299L15.108 40.0729Z" fill="white"/>
<path d="M20.2329 43.9171L21.81 44.5085L22.6971 47.6626C22.8942 48.3526 22.9928 48.6483 22.9928 48.6483C22.9928 48.6483 23.0914 48.1555 23.2885 47.6626L23.9785 45.1984L25.5556 45.5927L23.9785 51.6053L22.3029 51.211L21.2186 47.9583C21.0215 47.3669 20.9229 46.9726 20.9229 46.9726C20.9229 46.9726 20.8244 47.4655 20.6272 47.9583L19.7401 50.5211L18.2616 49.9296L20.2329 43.9171Z" fill="white"/>
<path d="M32.3581 49.2399C32.3581 50.7184 31.471 51.7041 29.6968 51.8027C28.0212 51.9012 26.5426 51.2113 26.444 48.7471C26.3455 46.2829 27.7254 45.3958 29.3025 45.2972C30.9781 45.1987 31.9638 46.1844 32.161 47.4657L30.4853 47.5643C30.2882 46.9729 29.9925 46.6772 29.3025 46.6772C28.6125 46.6772 28.1197 47.3672 28.2183 48.6485C28.3169 49.9299 28.8097 50.4227 29.5982 50.4227C30.3867 50.3242 30.6824 50.0285 30.781 49.3385L32.3581 49.2399Z" fill="white"/>
<path d="M32.751 45.0016L34.2295 44.4102L35.1167 46.4801L37.088 45.593L36.1023 43.5231L37.4822 42.8331L40.2421 48.3528L38.8622 49.1414L37.6794 46.9729L35.708 47.86L36.6937 50.1271L35.1167 50.7184L32.751 45.0016Z" fill="white"/>
<path d="M38.4683 42.0444L41.5239 39.1859L42.411 40.1716L40.5382 41.9458L41.3267 42.7344L43.1009 40.9601L43.9881 41.9458L42.1153 43.72L42.9038 44.6071L45.0723 42.5372L45.9594 43.5229L42.7066 46.677L38.4683 42.0444Z" fill="white"/>
<path d="M42.2145 38.2992L43.1017 36.8207L46.3544 36.4264C47.0443 36.3278 47.4386 36.3279 47.4386 36.3279C47.4386 36.3279 47.0444 36.1307 46.453 35.9336L44.0873 34.8493L44.6787 33.3708L50.297 35.9336L49.607 37.5106L46.2558 38.0035C45.5658 38.102 45.1715 38.102 45.1715 38.102C45.1715 38.102 45.6644 38.2992 46.1572 38.5949L48.5228 39.8762L47.7343 41.2562L42.2145 38.2992Z" fill="white"/>
<path d="M6.63143 17.6986L7.91279 18.1915L6.92712 20.9514L8.10993 21.3456L8.99706 18.7829L10.1798 19.2757L9.29275 21.7399L11.4612 22.5284L11.0669 24.1055L5.05438 22.1341L6.63143 17.6986Z" fill="white"/>
<path d="M14.2208 13.657C15.3051 14.6426 15.5022 15.924 14.418 17.3039C13.4323 18.5853 11.9538 19.1767 9.98245 17.6982C8.01112 16.2197 8.3068 14.544 9.29247 13.2627C10.3767 11.8827 11.7566 11.7842 12.8409 12.5727L11.8552 13.8541C11.3624 13.5584 10.8695 13.5584 10.3767 14.1498C9.88385 14.7412 9.98243 15.5297 11.0667 16.3182C12.0523 17.1068 12.8409 17.0082 13.3337 16.5154C13.8265 15.924 13.728 15.4312 13.2352 14.9383L14.2208 13.657Z" fill="white"/>
<path d="M20.3322 11.0945C20.825 10.8974 20.9235 10.7003 20.7264 10.2074C20.5293 9.71459 20.2336 9.71458 19.7407 10.0103L18.9522 10.4045L19.5436 11.4888L20.3322 11.0945ZM19.2479 8.82746C19.6422 8.63033 19.8393 8.43321 19.6422 8.03894C19.4451 7.64467 19.1493 7.64466 18.7551 7.84179L17.868 8.23608L18.3608 9.3203L19.2479 8.82746ZM18.3608 6.56043C19.4451 6.0676 20.5293 5.96903 21.0221 7.05327C21.4164 7.94037 21.1207 8.33465 20.7264 8.72892C21.2192 8.63035 21.9092 8.63035 22.4021 9.61602C22.8949 10.8974 22.1063 11.5874 21.0221 12.0802L18.6565 13.1644L15.8967 7.64468L18.3608 6.56043Z" fill="white"/>
<path d="M26.9352 8.33447L26.4424 7.15169C26.2452 6.75742 26.1467 6.36313 26.1467 6.36313C26.1467 6.36313 26.0481 6.75742 25.9495 7.15169L25.6539 8.43304L26.9352 8.33447ZM29.6951 10.7001H27.9209L27.428 9.61586L25.2596 9.81297L24.9639 10.9958L23.1897 11.2915L24.8653 4.78608L26.8367 4.58894L29.6951 10.7001Z" fill="white"/>
<path d="M31.2724 8.82748L29.7939 4.39197L31.6667 4.78626L32.2581 6.65903C32.3567 7.05329 32.4552 7.34898 32.4552 7.34898C32.4552 7.34898 32.6524 7.0533 32.9481 6.7576L34.2294 5.27909L36.1022 5.77193L32.9481 9.22177L32.4552 11.2917L30.7796 10.8974L31.2724 8.82748Z" fill="white"/>
<path d="M37.2849 6.36327L41.2276 8.43318L40.5377 9.61599L38.172 8.3346L37.6792 9.22173L39.8477 10.5031L39.2562 11.5873L37.0878 10.4045L36.4964 11.4888L38.862 12.7701L38.172 13.9529L34.525 11.883L37.2849 6.36327Z" fill="white"/>
<path d="M42.5105 13.3615L43.2004 14.0515C43.5947 14.4458 43.8904 14.4458 44.2847 14.0515C44.6789 13.6572 44.6789 13.3615 44.2847 12.9672L43.5947 12.2773L42.5105 13.3615ZM43.3975 10.2074L45.2703 12.2773C46.256 13.3615 46.4531 14.3472 45.2703 15.3328C44.4818 16.0228 43.989 16.1214 43.299 15.9242L42.3133 18.3884L41.1305 16.9099L42.0176 14.84L41.5248 14.2486L40.0463 15.7271L38.8635 14.5443L43.3975 10.2074Z" fill="white"/>
<path d="M44.9739 24.1052L44.3825 22.5281L46.2553 19.8668C46.6496 19.2754 46.8467 18.9797 46.8467 18.9797C46.8467 18.9797 46.4524 19.1768 45.861 19.4725L43.4954 20.5568L42.8055 19.0783L48.4238 16.5155L49.2123 18.0926L47.3395 20.951C46.9452 21.5424 46.7481 21.8381 46.7481 21.8381C46.7481 21.8381 47.241 21.641 47.7338 21.4439L50.198 20.4582L50.6908 22.0353L44.9739 24.1052Z" fill="white"/>
</svg>
