<svg width="40" height="40" viewBox="0 0 40 40" fill="none" xmlns="http://www.w3.org/2000/svg">
<circle cx="19.9961" cy="19.9961" r="19.9961" fill="#F5F5F5"/>
<path fill-rule="evenodd" clip-rule="evenodd" d="M19.841 24.3182C18.4975 24.3219 17.1731 24.6899 15.4305 25.4707L14.8729 24.2262C16.701 23.4072 18.2249 22.959 19.8372 22.9546C21.444 22.9501 23.0713 23.3867 25.1063 24.2172L24.591 25.4797C22.6257 24.6777 21.1899 24.3145 19.841 24.3182Z" fill="black"/>
<path fill-rule="evenodd" clip-rule="evenodd" d="M20.0001 19.3182C18.3683 19.3182 17.0455 17.9954 17.0455 16.3636C17.0455 14.7319 18.3683 13.4091 20.0001 13.4091C21.6318 13.4091 22.9546 14.7319 22.9546 16.3636C22.9546 17.9954 21.6318 19.3182 20.0001 19.3182ZM15.6819 16.3636C15.6819 18.7485 17.6152 20.6818 20.0001 20.6818C22.3849 20.6818 24.3182 18.7485 24.3182 16.3636C24.3182 13.9788 22.3849 12.0455 20.0001 12.0455C17.6152 12.0455 15.6819 13.9788 15.6819 16.3636Z" fill="black"/>
<path fill-rule="evenodd" clip-rule="evenodd" d="M8.40918 20C8.40918 13.5985 13.5986 8.40912 20.0001 8.40912C26.4016 8.40912 31.591 13.5985 31.591 20C31.591 20.8843 31.4918 21.7463 31.3038 22.5751L29.9739 22.2734C30.1397 21.5429 30.2273 20.7821 30.2273 20C30.2273 14.3517 25.6484 9.77275 20.0001 9.77275C14.3517 9.77275 9.77282 14.3517 9.77282 20C9.77282 25.6484 14.3517 30.2273 20.0001 30.2273C20.7822 30.2273 21.543 30.1396 22.2734 29.9739L22.5752 31.3037C21.7464 31.4918 20.8844 31.5909 20.0001 31.5909C13.5986 31.5909 8.40918 26.4015 8.40918 20Z" fill="black"/>
<path d="M28.4849 26.0606V30.9091" stroke="#FF6633" stroke-width="1.36337"/>
<path d="M30.9092 28.4849L26.0607 28.4849" stroke="#FF6633" stroke-width="1.36337"/>
</svg>
