<svg width="41" height="41" viewBox="0 0 41 41" fill="none" xmlns="http://www.w3.org/2000/svg">
<circle cx="20.0059" cy="20.0044" r="20.0059" fill="#F5F5F5"/>
<path d="M10.2079 29.3127C9.93923 29.044 9.93922 28.6074 10.2079 28.3387L12.9269 25.6197C13.1956 25.351 13.6322 25.351 13.9009 25.6197C14.1696 25.8883 14.1696 26.325 13.9009 26.5936L11.1819 29.3127C10.9132 29.5813 10.4765 29.5813 10.2079 29.3127ZM13.4139 29.5968C13.1452 29.3281 13.1452 28.8914 13.4139 28.6228L14.672 27.3647C14.9406 27.0961 15.3773 27.0961 15.6459 27.3647C15.9146 27.6334 15.9146 28.07 15.6459 28.3387L14.3879 29.5968C14.1192 29.8654 13.6826 29.8654 13.4139 29.5968ZM9.96439 26.1472C9.69573 25.8786 9.69573 25.4419 9.96439 25.1733L11.2224 23.9152C11.4911 23.6465 11.9278 23.6465 12.1964 23.9152C12.4651 24.1839 12.4651 24.6205 12.1964 24.8892L10.9384 26.1472C10.6697 26.4159 10.233 26.4159 9.96439 26.1472ZM18.1053 27.2738L12.2711 21.4396L6.27953 20.4169L12.7038 13.9927C14.2451 12.4514 16.7937 12.3978 18.5899 13.8401C18.9656 13.4936 19.3049 13.1916 19.6215 12.9189C20.7464 11.8037 23.0734 10.9782 24.2787 10.7193C24.881 10.5895 26.9628 10.1958 28.4506 10.5684L28.8735 10.6747L28.9587 11.1024C29.289 12.7525 28.9993 14.8717 28.6186 16.3043C28.3272 17.3992 27.8045 18.3521 27.3321 19.1394L27.324 19.1524L27.2867 19.206L27.2802 19.2124C26.8484 19.7449 26.3371 20.3228 25.7194 20.9745C27.1438 22.7691 27.0838 25.3079 25.5506 26.8412L19.1263 33.2654L18.1037 27.2738L18.1053 27.2738ZM20.0378 30.4076L24.5782 25.8672C25.5863 24.8591 25.6439 23.2236 24.7487 21.9729C24.1756 22.5443 23.3932 23.3153 22.571 24.1262C21.5524 25.1318 20.4006 26.2673 19.4875 27.1788L20.0378 30.4059L20.0378 30.4076ZM17.5729 14.7987C16.3221 13.9002 14.6866 13.9578 13.6769 14.9675L9.13654 19.5079L12.362 20.0582C12.6218 19.792 12.8921 19.5136 13.1737 19.2238C14.4764 17.8838 16.0827 16.2304 17.572 14.7995L17.5729 14.7987ZM18.7424 25.963C18.9056 25.7966 19.1361 25.5628 19.3203 25.3769L19.4137 25.2836L14.2435 20.1134L13.573 20.7935L18.7433 25.9638L18.7424 25.963ZM20.4047 24.2893C20.4826 24.213 20.5784 24.1189 20.6904 24.0101C21.8998 22.8284 25.1074 19.6954 26.1764 18.3911C26.5903 17.6947 27.0448 16.8603 27.2932 15.9318C27.7136 14.3539 27.8386 13.0439 27.682 11.8256C26.8103 11.7087 25.6415 11.8013 24.5133 12.0788C22.5345 12.5658 21.3933 13.0983 20.5735 13.918L20.5459 13.9456C18.9088 15.3474 17.3626 16.9098 15.2231 19.1094L20.4047 24.2909L20.4047 24.2893Z" fill="black"/>
<path fill-rule="evenodd" clip-rule="evenodd" d="M22.562 18.408C23.3432 18.408 23.9764 17.7748 23.9764 16.9936C23.9764 16.2124 23.3432 15.5792 22.562 15.5792C21.7809 15.5792 21.1476 16.2124 21.1476 16.9936C21.1476 17.7748 21.7809 18.408 22.562 18.408ZM22.562 19.772C24.0965 19.772 25.3405 18.5281 25.3405 16.9936C25.3405 15.4591 24.0965 14.2151 22.562 14.2151C21.0275 14.2151 19.7836 15.4591 19.7836 16.9936C19.7836 18.5281 21.0275 19.772 22.562 19.772Z" fill="#FF6633"/>
</svg>
