<svg width="40" height="40" viewBox="0 0 40 40" fill="none" xmlns="http://www.w3.org/2000/svg">
<circle cx="20.0039" cy="20.0039" r="20.0039" fill="#F5F5F5"/>
<path d="M27.0798 10.5323H20.9546L16.7346 8.41118C15.882 7.99242 14.8387 8.33875 14.4067 9.18681L13.7328 10.5323H12.9205C11.3088 10.5323 9.99805 11.8433 9.99805 13.4545V26.4086C9.99805 28.0201 11.3088 29.3308 12.9202 29.3308H27.0795C28.691 29.3308 30.002 28.0201 30.002 26.4086V13.4545C30.002 11.843 28.691 10.5323 27.0798 10.5323ZM27.0798 11.8001C27.9924 11.8001 28.7344 12.5424 28.7344 13.4545V14.0752H28.0024L23.4764 11.8001H27.0798ZM15.5385 9.75787C15.6558 9.52786 15.9412 9.43385 16.1705 9.54657L25.1793 14.0752H13.3759L14.7082 11.4156C14.7089 11.4142 14.7097 11.413 14.7104 11.4115L15.5385 9.75787ZM12.9202 11.8001H13.0975L11.9578 14.0752H11.2658V13.4545C11.2658 12.5424 12.0081 11.8001 12.9202 11.8001ZM27.0795 28.063H12.9202C12.0081 28.063 11.2658 27.3207 11.2658 26.4086V15.343H12.3384C12.3415 15.343 12.3444 15.3451 12.3475 15.3451C12.3528 15.3451 12.3581 15.3432 12.3633 15.343H27.8108C27.8146 15.3432 27.8182 15.343 27.8218 15.343H28.7342V16.7537H25.0057C22.679 16.7537 20.7859 18.6422 20.7859 20.9631C20.7859 21.9738 21.1419 22.9413 21.7606 23.6526C21.8391 23.7572 21.9293 23.8505 22.0204 23.9414C22.7425 24.6763 23.7103 25.1132 24.6912 25.1665C24.7915 25.1811 24.9056 25.1833 25.0057 25.1833H28.7342V26.4086C28.7342 27.3207 27.9919 28.063 27.0795 28.063ZM28.7342 23.9155H25.0057C24.9618 23.9153 24.9133 23.9179 24.8169 23.9061C24.0976 23.8654 23.4254 23.5622 22.9174 23.0456C22.8682 22.9962 22.8171 22.948 22.7469 22.8571C22.2998 22.3414 22.0537 21.6689 22.0537 20.9631C22.0537 19.3408 23.3779 18.0215 25.0057 18.0215H28.7342V23.9155Z" fill="black"/>
<circle cx="25.0805" cy="21.0085" r="1.81854" fill="#FF6633"/>
</svg>
